<?xml version="1.0" encoding="UTF-8"?>
<svg id="Lager_1" data-name="Lager 1" xmlns="http://www.w3.org/2000/svg" viewBox="0 0 211.6 221.2">
  <defs>
    <style>
      .cls-1 {
        fill: #1d1d1b;
      }
    </style>
  </defs>
  <path class="cls-1" d="M98.91,10.4c-22.95,11.88,18.77,39.1-19.76,54.18-38.87,15.21-42.7,50.06,11.76,86.98,28.84,19.55-23.43,20.46-13.73,43.59,19.04,45.42,109.27,9.08,109.44-19.03.05-8.64-11.65-22.41-3.75-37.34,5.27-12.3,20.01-9.16,24.59-3.51,8.99,11.07,1.29,28.45-3.75,35.74-5.04,7.29-10.57,13.83-16.59,19.64-13.04,12.54-28.38,21.25-46.01,26.14-10.6,2.96-20.79,4.43-30.57,4.43-14.27,0-28.59-3.06-42.96-9.17-23.03-9.68-40.56-25.02-52.59-46.01C4.99,148.59,0,130.09,0,110.52s5.2-38.83,15.59-56.56c11.11-18.85,26.8-33.27,47.08-43.26C77.45,3.57,93.4,0,110.52,0c29.35,0,54.73,9.94,76.13,29.81,10.19,9.48,14.64,13.83,15.29,20.48,2.34,23.99-24.95,21.74-28.9,11.21-8.75-12.13,8.64-33.23-7.17-43.47-15.52-10.06-39.03-22.09-66.96-7.63Z"/>
</svg>