<?xml version="1.0" encoding="UTF-8"?>
<svg id="Lager_1" xmlns="http://www.w3.org/2000/svg" viewBox="0 0 53.58 425.6">
  <defs>
    <style>
      .cls-1 {
        fill: #1d1d1b;
      }
    </style>
  </defs>
  <path class="cls-1" d="M27.66,424.86c-2.84.76-5.66.94-8.46.54-2.8-.4-5.38-1.28-7.74-2.64-2.36-1.36-4.41-3.15-6.15-5.37-1.74-2.22-2.99-4.75-3.75-7.59-.56-2.04-.8-4.08-.72-6.12.08-2.04.42-4,1.02-5.88.6-1.88,1.45-3.65,2.55-5.31,1.1-1.66,2.41-3.13,3.93-4.41l5.28,1.38v.54c-1.84.92-3.59,2.06-5.25,3.42-1.66,1.36-3.05,2.88-4.17,4.56-1.12,1.68-1.9,3.51-2.34,5.49-.44,1.98-.38,4.05.18,6.21.68,2.6,1.9,4.74,3.66,6.42,1.76,1.68,3.79,2.96,6.09,3.84,2.3.88,4.75,1.37,7.35,1.47,2.6.1,5.06-.17,7.38-.81,3.36-.88,6.16-2.28,8.4-4.2,2.24-1.92,3.94-4.07,5.1-6.45,1.16-2.38,1.79-4.86,1.89-7.44.1-2.58-.33-5.01-1.29-7.29-.96-2.28-2.43-4.27-4.41-5.97-1.98-1.7-4.45-2.85-7.41-3.45l.12-.48c3.24.64,5.95,1.93,8.13,3.87,2.18,1.94,3.8,4.22,4.86,6.84,1.06,2.62,1.57,5.42,1.53,8.4-.04,2.98-.65,5.83-1.83,8.55-1.18,2.72-2.93,5.15-5.25,7.29-2.32,2.14-5.22,3.67-8.7,4.59Z"/>
  <path class="cls-1" d="M43.32,355.44v5.58h-17.28c-1.08,0-2.28.05-3.6.15-1.32.1-2.56.35-3.72.75-1.16.4-2.13,1.01-2.91,1.83-.78.82-1.17,1.95-1.17,3.39s.21,2.69.63,3.75c.42,1.06.91,1.91,1.47,2.55.56.64,1.12,1.06,1.68,1.26.56.2,1,.16,1.32-.12.2-.16.35-.43.45-.81.1-.38.19-.81.27-1.29.08-.48.16-.99.24-1.53.08-.54.22-1.05.42-1.53.52-1.32,1.35-2.37,2.49-3.15,1.14-.78,2.41-1.33,3.81-1.65,1.4-.32,2.84-.44,4.32-.36,1.48.08,2.78.36,3.9.84,2.32.92,4.24,2.28,5.76,4.08,1.52,1.8,2.24,3.76,2.16,5.88-.08,2-.63,3.62-1.65,4.86-1.02,1.24-2.28,2.09-3.78,2.55-1.5.46-3.12.51-4.86.15-1.74-.36-3.36-1.13-4.86-2.31-1.5-1.18-2.77-2.8-3.81-4.86-1.04-2.06-1.62-4.57-1.74-7.53-.04-.08-.06-.22-.06-.42-.52.6-.94,1.3-1.26,2.1-.28.72-.46,1.5-.54,2.34-.08.84-.1,1.63-.06,2.37.04.74.1,1.4.18,1.98.08.58.14.95.18,1.11-.6.12-1.31-.05-2.13-.51-.82-.46-1.6-1.14-2.34-2.04-.74-.9-1.36-2-1.86-3.3-.5-1.3-.75-2.77-.75-4.41,0-1.92.3-3.54.9-4.86.6-1.32,1.42-2.39,2.46-3.2,1.04-.81,2.29-1.39,3.75-1.74,1.46-.35,3.03-.52,4.71-.52h12.12c1,0,1.8-.05,2.4-.15.6-.1,1.07-.23,1.41-.39.34-.16.56-.32.66-.48.1-.16.15-.28.15-.36h.54ZM23.28,367.08c0,1.6.2,3.11.6,4.53.4,1.42,1.02,2.66,1.86,3.72.84,1.06,1.9,1.9,3.18,2.52,1.28.62,2.78.93,4.5.93.84,0,1.68-.09,2.52-.27.84-.18,1.62-.48,2.34-.9.72-.42,1.34-.95,1.86-1.59.52-.64.86-1.42,1.02-2.34.2-.96.16-1.86-.12-2.7-.28-.84-.69-1.62-1.23-2.34-.54-.72-1.19-1.35-1.95-1.89-.76-.54-1.54-.97-2.34-1.29-.96-.36-1.99-.61-3.09-.75-1.1-.14-2.2-.15-3.3-.03-1.1.12-2.15.38-3.15.78-1,.4-1.9.94-2.7,1.62Z"/>
  <path class="cls-1" d="M20.16,330.84c1.52-.32,2.22-.72,2.1-1.2l.48-.18,1.26,3.24.06.18,1.2,3.12h-.54c-.28-.44-.73-.74-1.35-.9-.62-.16-1.21-.24-1.77-.24-.68.08-1.35.19-2.01.33-.66.14-1.27.35-1.83.63-.56.28-1.03.65-1.41,1.11-.38.46-.61,1.01-.69,1.65-.24,1.68-.16,3.04.24,4.08.4,1.04,1,1.86,1.8,2.46.8.6,1.73,1.03,2.79,1.29,1.06.26,2.15.41,3.27.45h14.4c1,0,1.8-.05,2.4-.15.6-.1,1.07-.23,1.41-.39.34-.16.56-.32.66-.48.1-.16.15-.28.15-.36h.54v7.02h-.54c0-.12-.05-.26-.15-.42-.1-.16-.32-.31-.66-.45-.34-.14-.81-.27-1.41-.39-.6-.12-1.4-.18-2.4-.18h-18.6c-1,0-1.8.06-2.4.18-.6.12-1.06.25-1.38.39-.32.14-.54.29-.66.45-.12.16-.18.3-.18.42h-.54v-5.64h5.7c-.84-.2-1.63-.5-2.37-.9-.74-.4-1.37-.93-1.89-1.59-.52-.66-.93-1.47-1.23-2.43s-.45-2.12-.45-3.48c0-2.28.56-4.03,1.68-5.25,1.12-1.22,2.56-2.01,4.32-2.37Z"/>
  <path class="cls-1" d="M43.32,321v6.96h-.54c0-.08-.05-.2-.15-.36-.1-.16-.32-.31-.66-.45-.34-.14-.81-.27-1.41-.39-.6-.12-1.4-.18-2.4-.18H5.16c-1.04.16-1.72.37-2.04.63-.32.26-.48.47-.48.63l-.54.18-2.1-5.64h38.16c1,0,1.8-.05,2.4-.15.6-.1,1.07-.23,1.41-.39.34-.16.56-.32.66-.48.1-.16.15-.28.15-.36h.54Z"/>
  <path class="cls-1" d="M16.56,318l-2.16-5.7h23.76c1,0,1.8-.05,2.4-.15.6-.1,1.07-.23,1.41-.39.34-.16.56-.32.66-.48.1-.16.15-.28.15-.36h.54v7.02h-.54c0-.12-.05-.26-.15-.42-.1-.16-.32-.31-.66-.45-.34-.14-.81-.27-1.41-.39-.6-.12-1.4-.18-2.4-.18h-18.54c-1.08.16-1.78.38-2.1.66-.32.28-.48.5-.48.66l-.48.18ZM9.54,314.85c0,.81-.27,1.49-.81,2.03-.54.55-1.21.82-2.01.82s-1.47-.27-2.01-.82c-.54-.55-.81-1.22-.81-2.03s.27-1.49.81-2.03c.54-.55,1.21-.82,2.01-.82s1.47.27,2.01.82c.54.55.81,1.22.81,2.03Z"/>
  <path class="cls-1" d="M32.7,307.44c-1.96.52-3.9.64-5.82.36-1.92-.28-3.69-.89-5.31-1.83-1.62-.94-3.03-2.17-4.23-3.69-1.2-1.52-2.06-3.26-2.58-5.22-.56-2.08-.69-4.08-.39-6,.3-1.92.89-3.66,1.77-5.22.88-1.56,2-2.9,3.36-4.02,1.36-1.12,2.84-1.92,4.44-2.4,0,1.44.06,2.99.18,4.65.12,1.66.34,3.17.66,4.53-.04-1.12.15-2.15.57-3.09.42-.94.99-1.75,1.71-2.43.72-.68,1.56-1.22,2.52-1.62.96-.4,1.96-.64,3-.72,2.16-.16,4.03.29,5.61,1.35,1.58,1.06,2.82,2.46,3.72,4.2.9,1.74,1.42,3.69,1.56,5.85.14,2.16-.15,4.25-.87,6.27-.72,2.02-1.89,3.85-3.51,5.49-1.62,1.64-3.75,2.82-6.39,3.54ZM23.64,284.04c-1.28.56-2.51,1.28-3.69,2.16-1.18.88-2.19,1.87-3.03,2.97-.84,1.1-1.44,2.31-1.8,3.63-.36,1.32-.34,2.7.06,4.14.36,1.36.98,2.5,1.86,3.42.88.92,1.9,1.65,3.06,2.19,1.16.54,2.42.92,3.78,1.14,1.36.22,2.7.29,4.02.21.32-.68.52-1.48.6-2.4.08-1.12-.05-2.35-.39-3.69-.34-1.34-.91-2.71-1.71-4.11-.96-1.68-1.64-3.36-2.04-5.04-.4-1.68-.64-3.22-.72-4.62ZM28.38,303.9c1.16-.12,2.24-.3,3.24-.54,2.88-.76,5.14-1.92,6.78-3.48,1.64-1.56,2.76-3.25,3.36-5.07.6-1.82.73-3.65.39-5.49-.34-1.84-1.03-3.44-2.07-4.8-1.04-1.36-2.37-2.35-3.99-2.97-1.62-.62-3.43-.63-5.43-.03-1.08.32-2.06.84-2.94,1.56-.88.72-1.53,1.6-1.95,2.64-.42,1.04-.58,2.22-.48,3.54.1,1.32.59,2.72,1.47,4.2.84,1.44,1.43,2.85,1.77,4.23.34,1.38.47,2.65.39,3.81-.04.44-.09.86-.15,1.26-.06.4-.19.78-.39,1.14Z"/>
  <path class="cls-1" d="M27.66,261.96c-2.84.76-5.66.94-8.46.54-2.8-.4-5.38-1.28-7.74-2.64-2.36-1.36-4.41-3.15-6.15-5.37-1.74-2.22-2.99-4.75-3.75-7.59-.56-2.04-.8-4.08-.72-6.12.08-2.04.42-4,1.02-5.88.6-1.88,1.45-3.65,2.55-5.31,1.1-1.66,2.41-3.13,3.93-4.41l5.28,1.38v.54c-1.84.92-3.59,2.06-5.25,3.42-1.66,1.36-3.05,2.88-4.17,4.56-1.12,1.68-1.9,3.51-2.34,5.49-.44,1.98-.38,4.05.18,6.21.68,2.6,1.9,4.74,3.66,6.42,1.76,1.68,3.79,2.96,6.09,3.84,2.3.88,4.75,1.37,7.35,1.47,2.6.1,5.06-.17,7.38-.81,3.36-.88,6.16-2.28,8.4-4.2,2.24-1.92,3.94-4.07,5.1-6.45,1.16-2.38,1.79-4.86,1.89-7.44.1-2.58-.33-5.01-1.29-7.29-.96-2.28-2.43-4.27-4.41-5.97-1.98-1.7-4.45-2.85-7.41-3.45l.12-.48c3.24.64,5.95,1.93,8.13,3.87,2.18,1.94,3.8,4.22,4.86,6.84,1.06,2.62,1.57,5.42,1.53,8.4-.04,2.98-.65,5.83-1.83,8.55-1.18,2.72-2.93,5.15-5.25,7.29-2.32,2.14-5.22,3.67-8.7,4.59Z"/>
  <path class="cls-1" d="M32.34,218.58c-1.96.52-3.9.64-5.82.36-1.92-.28-3.69-.89-5.31-1.83-1.62-.94-3.03-2.17-4.23-3.69-1.2-1.52-2.06-3.26-2.58-5.22-.52-1.96-.64-3.9-.36-5.82.28-1.92.89-3.7,1.83-5.34.94-1.64,2.17-3.06,3.69-4.26,1.52-1.2,3.26-2.06,5.22-2.58,1.96-.52,3.9-.64,5.82-.36,1.92.28,3.69.89,5.31,1.83,1.62.94,3.03,2.17,4.23,3.69,1.2,1.52,2.06,3.26,2.58,5.22.52,1.96.64,3.9.36,5.82-.28,1.92-.89,3.7-1.83,5.34-.94,1.64-2.17,3.06-3.69,4.26-1.52,1.2-3.26,2.06-5.22,2.58ZM25.86,194.28c-1.44.4-2.91,1.02-4.41,1.86s-2.82,1.86-3.96,3.06c-1.14,1.2-1.98,2.56-2.52,4.08-.54,1.52-.59,3.12-.15,4.8.44,1.68,1.27,3.03,2.49,4.05,1.22,1.02,2.62,1.77,4.2,2.25,1.58.48,3.24.72,4.98.72s3.33-.2,4.77-.6c1.44-.4,2.92-1.02,4.44-1.86,1.52-.84,2.84-1.86,3.96-3.06,1.12-1.2,1.96-2.56,2.52-4.08.56-1.52.6-3.12.12-4.8-.44-1.68-1.27-3.04-2.49-4.08-1.22-1.04-2.62-1.8-4.2-2.28-1.58-.48-3.24-.71-4.98-.69-1.74.02-3.33.23-4.77.63Z"/>
  <path class="cls-1" d="M14.4,186.66v-5.58l15.54.06c-1.84-.24-3.5-.57-4.98-.99-1.48-.42-2.8-.89-3.96-1.41-.84-.4-1.66-.86-2.46-1.38-.8-.52-1.53-1.13-2.19-1.83-.66-.7-1.19-1.46-1.59-2.28-.4-.82-.6-1.73-.6-2.73,0-1.64.34-2.97,1.02-3.99.68-1.02,1.56-1.82,2.64-2.4,1.08-.58,2.3-.98,3.66-1.2,1.36-.22,2.72-.33,4.08-.33h12.6c1,0,1.8-.05,2.4-.15.6-.1,1.07-.23,1.41-.39.34-.16.56-.32.66-.48.1-.16.15-.28.15-.36h.54v6.96h-.54c0-.08-.05-.2-.15-.36-.1-.16-.32-.31-.66-.45-.34-.14-.81-.27-1.41-.39-.6-.12-1.4-.18-2.4-.18h-12.6c-.72,0-1.59.04-2.61.12-1.02.08-2.02.25-3,.51-.98.26-1.87.64-2.67,1.14-.8.5-1.34,1.17-1.62,2-.28.84-.27,1.65.03,2.45.3.8.75,1.52,1.35,2.18.6.66,1.28,1.25,2.04,1.76.76.52,1.48.94,2.16,1.25,1.92.88,4.27,1.57,7.05,2.09,2.78.52,6.07.78,9.87.78,1,0,1.8-.05,2.4-.15.6-.1,1.07-.23,1.41-.39.34-.16.56-.32.66-.48.1-.16.15-.28.15-.36h.54v6.96h-.54c0-.08-.05-.2-.15-.36-.1-.16-.32-.31-.66-.45-.34-.14-.81-.27-1.41-.39-.6-.12-1.4-.18-2.4-.18h-18.6c-.96,0-1.75.06-2.37.18-.62.12-1.09.25-1.41.39-.32.14-.54.29-.66.45-.12.16-.18.28-.18.36h-.54Z"/>
  <path class="cls-1" d="M25.2,137.46c-.84,0-1.75.23-2.73.69-.98.46-1.94,1.09-2.88,1.89-.94.8-1.78,1.71-2.52,2.73-.74,1.02-1.28,2.08-1.62,3.18-.34,1.1-.42,2.2-.24,3.3.18,1.1.73,2.09,1.65,2.97.84.84,1.83,1.24,2.97,1.2,1.14-.04,2.17-.52,3.09-1.44.68-.68,1.36-1.69,2.04-3.03.68-1.34,1.3-3.11,1.86-5.31.44-1.64.96-3.02,1.56-4.14.6-1.12,1.24-2.04,1.92-2.76,1.16-1.16,2.46-1.84,3.9-2.04,1.44-.2,2.88.1,4.32.9.68.4,1.31.87,1.89,1.41.58.54,1.05,1.13,1.41,1.77.44.64.81,1.35,1.11,2.13.3.78.54,1.59.72,2.43.18.84.3,1.68.36,2.52s.07,1.64.03,2.4c-.12,1.44-.43,2.95-.93,4.53-.5,1.58-1.27,3.23-2.31,4.95l-.3.48-6.66-1.44.12-.48c.36.08.82,0,1.38-.24.56-.24,1.14-.54,1.74-.9.6-.36,1.15-.74,1.65-1.14.5-.4.87-.74,1.11-1.02.8-.8,1.43-1.68,1.89-2.64.46-.96.79-1.96.99-3,.2-1,.28-1.99.24-2.97-.04-.98-.18-1.91-.42-2.79-.12-.48-.27-.92-.45-1.32s-.39-.82-.63-1.26c-.28-.4-.58-.76-.9-1.08-.32-.28-.66-.53-1.02-.75-.36-.22-.74-.37-1.14-.45-.64-.08-1.22-.04-1.74.12-.76.28-1.41.75-1.95,1.41s-1,1.43-1.38,2.31c-.38.88-.71,1.83-.99,2.85-.28,1.02-.58,2.03-.9,3.03-.56,1.92-1.36,3.61-2.4,5.07-1.04,1.46-2.23,2.52-3.57,3.18-1.34.66-2.77.86-4.29.6-1.52-.26-3.06-1.17-4.62-2.73-1.08-1.04-1.75-2.41-2.01-4.11-.26-1.7-.26-3.42,0-5.16.26-1.74.74-3.32,1.44-4.74.7-1.42,1.49-2.39,2.37-2.91l6.84,1.5v.3Z"/>
  <path class="cls-1" d="M43.32,106.08v5.58h-15.48c1.8.28,3.44.62,4.92,1.02,1.48.4,2.8.86,3.96,1.38.84.4,1.66.86,2.46,1.38.8.52,1.53,1.13,2.19,1.83.66.7,1.19,1.46,1.59,2.28.4.82.6,1.73.6,2.73,0,1.64-.34,2.97-1.02,3.99-.68,1.02-1.56,1.82-2.64,2.4-1.08.58-2.3.98-3.66,1.2-1.36.22-2.72.33-4.08.33h-12.6c-1,0-1.8.06-2.4.18-.6.12-1.06.25-1.38.39-.32.14-.54.29-.66.45-.12.16-.18.28-.18.36h-.54v-5.58h17.76c.72,0,1.59-.04,2.61-.12,1.02-.08,2.02-.25,3-.51.98-.26,1.87-.64,2.67-1.14.8-.5,1.34-1.17,1.62-2.01.28-.84.28-1.66,0-2.46-.28-.8-.72-1.53-1.32-2.19s-1.28-1.25-2.04-1.77c-.76-.52-1.48-.94-2.16-1.26-1.92-.88-4.27-1.58-7.05-2.1-2.78-.52-6.09-.78-9.93-.78-1,0-1.8.06-2.4.18-.6.12-1.06.25-1.38.39-.32.14-.54.29-.66.45-.12.16-.18.28-.18.36h-.54v-5.58h23.76c1,0,1.8-.05,2.4-.15.6-.1,1.07-.23,1.41-.39.34-.16.56-.32.66-.48.1-.16.15-.28.15-.36h.54Z"/>
  <path class="cls-1" d="M43.32,96.12v6.96h-.54c0-.08-.05-.2-.15-.36-.1-.16-.32-.31-.66-.45-.34-.14-.81-.27-1.41-.39-.6-.12-1.4-.18-2.4-.18H5.16c-1.04.16-1.72.37-2.04.63-.32.26-.48.47-.48.63l-.54.18-2.1-5.64h38.16c1,0,1.8-.05,2.4-.15.6-.1,1.07-.23,1.41-.39.34-.16.56-.32.66-.48.1-.16.15-.28.15-.36h.54Z"/>
  <path class="cls-1" d="M14.4,94.02c0-.24-.06-.68-.18-1.32-.12-.64-.45-1.29-.99-1.95-.54-.66-1.36-1.24-2.46-1.74-1.1-.5-2.63-.75-4.59-.75v-4.2c2.4,0,4.25.48,5.55,1.44,1.3.96,2.19,2.4,2.67,4.32v-9h.42v5.22h17.34c.72,0,1.59-.04,2.61-.12s2.02-.25,3-.51c.98-.26,1.87-.64,2.67-1.14.8-.5,1.34-1.17,1.62-2.01.28-.84.28-1.66,0-2.46-.28-.8-.72-1.53-1.32-2.19s-1.28-1.25-2.04-1.77c-.76-.52-1.48-.94-2.16-1.26-.56-.24-1.15-.47-1.77-.69-.62-.22-1.27-.43-1.95-.63v-.54c.72.2,1.41.41,2.07.63.66.22,1.27.47,1.83.75.84.36,1.66.81,2.46,1.35.8.54,1.53,1.15,2.19,1.83.66.68,1.19,1.44,1.59,2.28s.6,1.76.6,2.76c0,1.64-.34,2.97-1.02,3.99-.68,1.02-1.56,1.82-2.64,2.4s-2.3.98-3.66,1.2c-1.36.22-2.72.33-4.08.33h-13.68c-1,0-1.86.34-2.58,1.02-.72.68-1.08,1.6-1.08,2.76h-.42Z"/>
  <path class="cls-1" d="M16.56,71.22l-2.16-5.7h23.76c1,0,1.8-.05,2.4-.15.6-.1,1.07-.23,1.41-.39.34-.16.56-.32.66-.48.1-.16.15-.28.15-.36h.54v7.02h-.54c0-.12-.05-.26-.15-.42-.1-.16-.32-.31-.66-.45-.34-.14-.81-.27-1.41-.39-.6-.12-1.4-.18-2.4-.18h-18.54c-1.08.16-1.78.38-2.1.66-.32.28-.48.5-.48.66l-.48.18ZM9.54,68.07c0,.81-.27,1.49-.81,2.03-.54.54-1.21.82-2.01.82s-1.47-.27-2.01-.82c-.54-.55-.81-1.22-.81-2.03s.27-1.49.81-2.03,1.21-.82,2.01-.82,1.47.27,2.01.82.81,1.22.81,2.03Z"/>
  <path class="cls-1" d="M14.4,61.2v-5.58l15.54.06c-1.84-.24-3.5-.57-4.98-.99-1.48-.42-2.8-.89-3.96-1.41-.84-.4-1.66-.86-2.46-1.38-.8-.52-1.53-1.13-2.19-1.83-.66-.7-1.19-1.46-1.59-2.28-.4-.82-.6-1.73-.6-2.73,0-1.64.34-2.97,1.02-3.99.68-1.02,1.56-1.82,2.64-2.4,1.08-.58,2.3-.98,3.66-1.2,1.36-.22,2.72-.33,4.08-.33h12.6c1,0,1.8-.05,2.4-.15.6-.1,1.07-.23,1.41-.39.34-.16.56-.32.66-.48.1-.16.15-.28.15-.36h.54v6.96h-.54c0-.08-.05-.2-.15-.36-.1-.16-.32-.31-.66-.45-.34-.14-.81-.27-1.41-.39-.6-.12-1.4-.18-2.4-.18h-12.6c-.72,0-1.59.04-2.61.12-1.02.08-2.02.25-3,.51-.98.26-1.87.64-2.67,1.13-.8.5-1.34,1.17-1.62,2-.28.84-.27,1.65.03,2.45.3.8.75,1.52,1.35,2.18.6.66,1.28,1.25,2.04,1.76.76.52,1.48.94,2.16,1.25,1.92.88,4.27,1.57,7.05,2.09,2.78.52,6.07.78,9.87.78,1,0,1.8-.05,2.4-.15.6-.1,1.07-.23,1.41-.39.34-.16.56-.32.66-.48.1-.16.15-.28.15-.36h.54v6.96h-.54c0-.08-.05-.2-.15-.36-.1-.16-.32-.31-.66-.45-.34-.14-.81-.27-1.41-.39-.6-.12-1.4-.18-2.4-.18h-18.6c-.96,0-1.75.06-2.37.18-.62.12-1.09.25-1.41.39-.32.14-.54.29-.66.45-.12.16-.18.28-.18.36h-.54Z"/>
  <path class="cls-1" d="M32.34,32.22c-1.96.52-3.9.64-5.82.36-1.92-.28-3.7-.89-5.34-1.83-1.64-.94-3.06-2.17-4.26-3.69-1.2-1.52-2.06-3.26-2.58-5.22-.56-2-.69-3.95-.39-5.85.3-1.9.91-3.67,1.83-5.31l-.54-1.98c-.48-1.8-.95-3.18-1.41-4.14-.46-.96-.88-1.65-1.26-2.07-.38-.42-.69-.65-.93-.69-.24-.04-.38-.06-.42-.06h-.06l-.12-.54,2.22-.54.54-.12,2.22-.54.12.54c-.36.28-.62.72-.78,1.32-.16.52-.25,1.23-.27,2.13-.02.9.13,2.07.45,3.51l.6,2.52c.96-1.48,2.17-2.76,3.63-3.84,1.46-1.08,3.11-1.88,4.95-2.4,1.88-.52,3.75-.65,5.61-.39,1.86.26,3.59.82,5.19,1.68,1.6.86,3.01,2,4.23,3.42,1.22,1.42,2.13,3.05,2.73,4.89.32.8.56,1.73.72,2.79.16,1.06.32,2.15.48,3.27.16,1.12.33,2.23.51,3.33.18,1.1.45,2.06.81,2.88.36.82.85,1.45,1.47,1.89.62.44,1.41.6,2.37.48,1.12-.16,1.85-.62,2.19-1.38.34-.76.44-1.67.3-2.73-.14-1.06-.45-2.21-.93-3.45-.48-1.24-1.01-2.43-1.59-3.57-.58-1.14-1.14-2.17-1.68-3.09-.54-.92-.93-1.56-1.17-1.92-.8-1.28-1.53-2.57-2.19-3.87-.66-1.3-1.05-2.47-1.17-3.51-.16-1.36.17-2.38.99-3.06.82-.68,1.83-1.03,3.03-1.05,1.2-.02,2.4.3,3.6.96,1.2.66,2.1,1.61,2.7,2.85.44.96.66,1.98.66,3.06s-.16,2.16-.48,3.24c-.32,1.08-.77,2.12-1.35,3.12-.58,1-1.23,1.86-1.95,2.58l-.3-.3c1.48-1.88,2.5-3.64,3.06-5.28.56-1.64.5-3.04-.18-4.2-.36-.6-.9-1.13-1.62-1.59-.72-.46-1.49-.8-2.31-1.02-.82-.22-1.59-.27-2.31-.15-.72.12-1.24.47-1.56,1.05-.32.58-.38,1.43-.18,2.55.2,1.12.84,2.58,1.92,4.38.4.64.95,1.52,1.65,2.64.7,1.12,1.41,2.36,2.13,3.72.72,1.36,1.36,2.75,1.92,4.17.56,1.42.88,2.74.96,3.96.08,1.22-.14,2.28-.66,3.18-.52.9-1.5,1.49-2.94,1.77-1.36.24-2.42-.07-3.18-.93-.76-.86-1.35-1.94-1.77-3.24s-.7-2.66-.84-4.08c-.14-1.42-.27-2.61-.39-3.57-.12,1.52-.47,2.97-1.05,4.35-.58,1.38-1.34,2.64-2.28,3.78-.94,1.14-2.05,2.13-3.33,2.97-1.28.84-2.68,1.46-4.2,1.86ZM25.8,7.86c-1.44.4-2.92,1.03-4.44,1.89-1.52.86-2.84,1.89-3.96,3.09-1.12,1.2-1.96,2.56-2.52,4.08-.56,1.52-.6,3.12-.12,4.8.44,1.68,1.28,3.04,2.52,4.08,1.24,1.04,2.65,1.8,4.23,2.28,1.58.48,3.24.71,4.98.69,1.74-.02,3.33-.23,4.77-.63,1.44-.4,2.92-1.02,4.44-1.86,1.52-.84,2.84-1.86,3.96-3.06,1.12-1.2,1.96-2.56,2.52-4.08.56-1.52.6-3.12.12-4.8-.44-1.68-1.28-3.04-2.52-4.08-1.24-1.04-2.65-1.8-4.23-2.28-1.58-.48-3.24-.72-4.98-.72s-3.33.2-4.77.6Z"/>
</svg>