<?xml version="1.0" encoding="UTF-8"?>
<svg id="Lager_1" xmlns="http://www.w3.org/2000/svg" viewBox="0 0 425.6 53.58">
  <defs>
    <style>
      .cls-1 {
        fill: #1d1d1b;
      }
    </style>
  </defs>
  <path class="cls-1" d="M.75,27.66C-.01,24.82-.19,22,.21,19.2c.4-2.8,1.28-5.38,2.64-7.74,1.36-2.36,3.15-4.41,5.37-6.15,2.22-1.74,4.75-2.99,7.59-3.75,2.04-.56,4.08-.8,6.12-.72,2.04.08,4,.42,5.88,1.02,1.88.6,3.65,1.45,5.31,2.55,1.66,1.1,3.13,2.41,4.41,3.93l-1.38,5.28h-.54c-.92-1.84-2.06-3.59-3.42-5.25-1.36-1.66-2.88-3.05-4.56-4.17-1.68-1.12-3.51-1.9-5.49-2.34-1.98-.44-4.05-.38-6.21.18-2.6.68-4.74,1.9-6.42,3.66-1.68,1.76-2.96,3.79-3.84,6.09-.88,2.3-1.37,4.75-1.47,7.35-.1,2.6.17,5.06.81,7.38.88,3.36,2.28,6.16,4.2,8.4,1.92,2.24,4.07,3.94,6.45,5.1,2.38,1.16,4.86,1.79,7.44,1.89,2.58.1,5.01-.33,7.29-1.29,2.28-.96,4.27-2.43,5.97-4.41,1.7-1.98,2.85-4.45,3.45-7.41l.48.12c-.64,3.24-1.93,5.95-3.87,8.13-1.94,2.18-4.22,3.8-6.84,4.86-2.62,1.06-5.42,1.57-8.4,1.53-2.98-.04-5.83-.65-8.55-1.83-2.72-1.18-5.15-2.93-7.29-5.25-2.14-2.32-3.67-5.22-4.59-8.7Z"/>
  <path class="cls-1" d="M70.17,43.32h-5.58v-17.28c0-1.08-.05-2.28-.15-3.6-.1-1.32-.35-2.56-.75-3.72-.4-1.16-1.01-2.13-1.83-2.91-.82-.78-1.95-1.17-3.39-1.17s-2.69.21-3.75.63c-1.06.42-1.91.91-2.55,1.47-.64.56-1.06,1.12-1.26,1.68-.2.56-.16,1,.12,1.32.16.2.43.35.81.45.38.1.81.19,1.29.27.48.08.99.16,1.53.24.54.08,1.05.22,1.53.42,1.32.52,2.37,1.35,3.15,2.49.78,1.14,1.33,2.41,1.65,3.81.32,1.4.44,2.84.36,4.32-.08,1.48-.36,2.78-.84,3.9-.92,2.32-2.28,4.24-4.08,5.76-1.8,1.52-3.76,2.24-5.88,2.16-2-.08-3.62-.63-4.86-1.65-1.24-1.02-2.09-2.28-2.55-3.78-.46-1.5-.51-3.12-.15-4.86.36-1.74,1.13-3.36,2.31-4.86,1.18-1.5,2.8-2.77,4.86-3.81,2.06-1.04,4.57-1.62,7.53-1.74.08-.04.22-.06.42-.06-.6-.52-1.3-.94-2.1-1.26-.72-.28-1.5-.46-2.34-.54-.84-.08-1.63-.1-2.37-.06-.74.04-1.4.1-1.98.18-.58.08-.95.14-1.11.18-.12-.6.05-1.31.51-2.13.46-.82,1.14-1.6,2.04-2.34.9-.74,2-1.36,3.3-1.86,1.3-.5,2.77-.75,4.41-.75,1.92,0,3.54.3,4.86.9,1.32.6,2.39,1.42,3.2,2.46.81,1.04,1.39,2.29,1.74,3.75.35,1.46.52,3.03.52,4.71v12.12c0,1,.05,1.8.15,2.4.1.6.23,1.07.39,1.41.16.34.32.56.48.66.16.1.28.15.36.15v.54ZM58.53,23.28c-1.6,0-3.11.2-4.53.6-1.42.4-2.66,1.02-3.72,1.86-1.06.84-1.9,1.9-2.52,3.18-.62,1.28-.93,2.78-.93,4.5,0,.84.09,1.68.27,2.52.18.84.48,1.62.9,2.34.42.72.95,1.34,1.59,1.86.64.52,1.42.86,2.34,1.02.96.2,1.86.16,2.7-.12.84-.28,1.62-.69,2.34-1.23.72-.54,1.35-1.19,1.89-1.95.54-.76.97-1.54,1.29-2.34.36-.96.61-1.99.75-3.09.14-1.1.15-2.2.03-3.3-.12-1.1-.38-2.15-.78-3.15-.4-1-.94-1.9-1.62-2.7Z"/>
  <path class="cls-1" d="M94.77,20.16c.32,1.52.72,2.22,1.2,2.1l.18.48-3.24,1.26-.18.06-3.12,1.2v-.54c.44-.28.74-.73.9-1.35.16-.62.24-1.21.24-1.77-.08-.68-.19-1.35-.33-2.01-.14-.66-.35-1.27-.63-1.83-.28-.56-.65-1.03-1.11-1.41-.46-.38-1.01-.61-1.65-.69-1.68-.24-3.04-.16-4.08.24-1.04.4-1.86,1-2.46,1.8-.6.8-1.03,1.73-1.29,2.79-.26,1.06-.41,2.15-.45,3.27v14.4c0,1,.05,1.8.15,2.4.1.6.23,1.07.39,1.41.16.34.32.56.48.66.16.1.28.15.36.15v.54h-7.02v-.54c.12,0,.26-.05.42-.15.16-.1.31-.32.45-.66.14-.34.27-.81.39-1.41.12-.6.18-1.4.18-2.4v-18.6c0-1-.06-1.8-.18-2.4-.12-.6-.25-1.06-.39-1.38-.14-.32-.29-.54-.45-.66-.16-.12-.3-.18-.42-.18v-.54h5.64v5.7c.2-.84.5-1.63.9-2.37.4-.74.93-1.37,1.59-1.89.66-.52,1.47-.93,2.43-1.23s2.12-.45,3.48-.45c2.28,0,4.03.56,5.25,1.68,1.22,1.12,2.01,2.56,2.37,4.32Z"/>
  <path class="cls-1" d="M104.61,43.32h-6.96v-.54c.08,0,.2-.05.36-.15.16-.1.31-.32.45-.66.14-.34.27-.81.39-1.41.12-.6.18-1.4.18-2.4V5.16c-.16-1.04-.37-1.72-.63-2.04-.26-.32-.47-.48-.63-.48l-.18-.54,5.64-2.1v38.16c0,1,.05,1.8.15,2.4.1.6.23,1.07.39,1.41.16.34.32.56.48.66.16.1.28.15.36.15v.54Z"/>
  <path class="cls-1" d="M107.61,16.56l5.7-2.16v23.76c0,1,.05,1.8.15,2.4.1.6.23,1.07.39,1.41.16.34.32.56.48.66.16.1.28.15.36.15v.54h-7.02v-.54c.12,0,.26-.05.42-.15.16-.1.31-.32.45-.66.14-.34.27-.81.39-1.41.12-.6.18-1.4.18-2.4v-18.54c-.16-1.08-.38-1.78-.66-2.1-.28-.32-.5-.48-.66-.48l-.18-.48ZM110.76,9.54c-.81,0-1.49-.27-2.03-.81-.55-.54-.82-1.21-.82-2.01s.27-1.47.82-2.01c.55-.54,1.22-.81,2.03-.81s1.49.27,2.03.81c.55.54.82,1.21.82,2.01s-.27,1.47-.82,2.01c-.55.54-1.22.81-2.03.81Z"/>
  <path class="cls-1" d="M118.17,32.7c-.52-1.96-.64-3.9-.36-5.82.28-1.92.89-3.69,1.83-5.31.94-1.62,2.17-3.03,3.69-4.23,1.52-1.2,3.26-2.06,5.22-2.58,2.08-.56,4.08-.69,6-.39,1.92.3,3.66.89,5.22,1.77,1.56.88,2.9,2,4.02,3.36,1.12,1.36,1.92,2.84,2.4,4.44-1.44,0-2.99.06-4.65.18-1.66.12-3.17.34-4.53.66,1.12-.04,2.15.15,3.09.57.94.42,1.75.99,2.43,1.71.68.72,1.22,1.56,1.62,2.52.4.96.64,1.96.72,3,.16,2.16-.29,4.03-1.35,5.61-1.06,1.58-2.46,2.82-4.2,3.72-1.74.9-3.69,1.42-5.85,1.56-2.16.14-4.25-.15-6.27-.87-2.02-.72-3.85-1.89-5.49-3.51-1.64-1.62-2.82-3.75-3.54-6.39ZM141.57,23.64c-.56-1.28-1.28-2.51-2.16-3.69-.88-1.18-1.87-2.19-2.97-3.03-1.1-.84-2.31-1.44-3.63-1.8-1.32-.36-2.7-.34-4.14.06-1.36.36-2.5.98-3.42,1.86-.92.88-1.65,1.9-2.19,3.06-.54,1.16-.92,2.42-1.14,3.78-.22,1.36-.29,2.7-.21,4.02.68.32,1.48.52,2.4.6,1.12.08,2.35-.05,3.69-.39,1.34-.34,2.71-.91,4.11-1.71,1.68-.96,3.36-1.64,5.04-2.04,1.68-.4,3.22-.64,4.62-.72ZM121.71,28.38c.12,1.16.3,2.24.54,3.24.76,2.88,1.92,5.14,3.48,6.78,1.56,1.64,3.25,2.76,5.07,3.36,1.82.6,3.65.73,5.49.39,1.84-.34,3.44-1.03,4.8-2.07,1.36-1.04,2.35-2.37,2.97-3.99.62-1.62.63-3.43.03-5.43-.32-1.08-.84-2.06-1.56-2.94-.72-.88-1.6-1.53-2.64-1.95-1.04-.42-2.22-.58-3.54-.48-1.32.1-2.72.59-4.2,1.47-1.44.84-2.85,1.43-4.23,1.77-1.38.34-2.65.47-3.81.39-.44-.04-.86-.09-1.26-.15-.4-.06-.78-.19-1.14-.39Z"/>
  <path class="cls-1" d="M163.64,27.66c-.76-2.84-.94-5.66-.54-8.46.4-2.8,1.28-5.38,2.64-7.74,1.36-2.36,3.15-4.41,5.37-6.15,2.22-1.74,4.75-2.99,7.59-3.75,2.04-.56,4.08-.8,6.12-.72,2.04.08,4,.42,5.88,1.02,1.88.6,3.65,1.45,5.31,2.55,1.66,1.1,3.13,2.41,4.41,3.93l-1.38,5.28h-.54c-.92-1.84-2.06-3.59-3.42-5.25-1.36-1.66-2.88-3.05-4.56-4.17-1.68-1.12-3.51-1.9-5.49-2.34-1.98-.44-4.05-.38-6.21.18-2.6.68-4.74,1.9-6.42,3.66-1.68,1.76-2.96,3.79-3.84,6.09-.88,2.3-1.37,4.75-1.47,7.35-.1,2.6.17,5.06.81,7.38.88,3.36,2.28,6.16,4.2,8.4,1.92,2.24,4.07,3.94,6.45,5.1,2.38,1.16,4.86,1.79,7.44,1.89,2.58.1,5.01-.33,7.29-1.29,2.28-.96,4.27-2.43,5.97-4.41,1.7-1.98,2.85-4.45,3.45-7.41l.48.12c-.64,3.24-1.93,5.95-3.87,8.13-1.94,2.18-4.22,3.8-6.84,4.86-2.62,1.06-5.42,1.57-8.4,1.53-2.98-.04-5.83-.65-8.55-1.83-2.72-1.18-5.15-2.93-7.29-5.25-2.14-2.32-3.67-5.22-4.59-8.7Z"/>
  <path class="cls-1" d="M207.02,32.34c-.52-1.96-.64-3.9-.36-5.82.28-1.92.89-3.69,1.83-5.31.94-1.62,2.17-3.03,3.69-4.23,1.52-1.2,3.26-2.06,5.22-2.58,1.96-.52,3.9-.64,5.82-.36,1.92.28,3.7.89,5.34,1.83,1.64.94,3.06,2.17,4.26,3.69,1.2,1.52,2.06,3.26,2.58,5.22.52,1.96.64,3.9.36,5.82-.28,1.92-.89,3.69-1.83,5.31-.94,1.62-2.17,3.03-3.69,4.23-1.52,1.2-3.26,2.06-5.22,2.58-1.96.52-3.9.64-5.82.36-1.92-.28-3.7-.89-5.34-1.83-1.64-.94-3.06-2.17-4.26-3.69-1.2-1.52-2.06-3.26-2.58-5.22ZM231.32,25.86c-.4-1.44-1.02-2.91-1.86-4.41s-1.86-2.82-3.06-3.96c-1.2-1.14-2.56-1.98-4.08-2.52-1.52-.54-3.12-.59-4.8-.15-1.68.44-3.03,1.27-4.05,2.49-1.02,1.22-1.77,2.62-2.25,4.2-.48,1.58-.72,3.24-.72,4.98s.2,3.33.6,4.77c.4,1.44,1.02,2.92,1.86,4.44.84,1.52,1.86,2.84,3.06,3.96,1.2,1.12,2.56,1.96,4.08,2.52,1.52.56,3.12.6,4.8.12,1.68-.44,3.04-1.27,4.08-2.49,1.04-1.22,1.8-2.62,2.28-4.2.48-1.58.71-3.24.69-4.98-.02-1.74-.23-3.33-.63-4.77Z"/>
  <path class="cls-1" d="M238.94,14.4h5.58l-.06,15.54c.24-1.84.57-3.5.99-4.98.42-1.48.89-2.8,1.41-3.96.4-.84.86-1.66,1.38-2.46.52-.8,1.13-1.53,1.83-2.19.7-.66,1.46-1.19,2.28-1.59.82-.4,1.73-.6,2.73-.6,1.64,0,2.97.34,3.99,1.02,1.02.68,1.82,1.56,2.4,2.64.58,1.08.98,2.3,1.2,3.66.22,1.36.33,2.72.33,4.08v12.6c0,1,.05,1.8.15,2.4.1.6.23,1.07.39,1.41.16.34.32.56.48.66.16.1.28.15.36.15v.54h-6.96v-.54c.08,0,.2-.05.36-.15.16-.1.31-.32.45-.66.14-.34.27-.81.39-1.41.12-.6.18-1.4.18-2.4v-12.6c0-.72-.04-1.59-.12-2.61-.08-1.02-.25-2.02-.51-3-.26-.98-.64-1.87-1.14-2.67-.5-.8-1.17-1.34-2-1.62-.84-.28-1.65-.27-2.45.03-.8.3-1.52.75-2.18,1.35-.66.6-1.25,1.28-1.76,2.04-.52.76-.94,1.48-1.25,2.16-.88,1.92-1.57,4.27-2.09,7.05-.52,2.78-.78,6.07-.78,9.87,0,1,.05,1.8.15,2.4.1.6.23,1.07.39,1.41.16.34.32.56.48.66.16.1.28.15.36.15v.54h-6.96v-.54c.08,0,.2-.05.36-.15.16-.1.31-.32.45-.66.14-.34.27-.81.39-1.41.12-.6.18-1.4.18-2.4v-18.6c0-.96-.06-1.75-.18-2.37-.12-.62-.25-1.09-.39-1.41-.14-.32-.29-.54-.45-.66-.16-.12-.28-.18-.36-.18v-.54Z"/>
  <path class="cls-1" d="M288.14,25.2c0-.84-.23-1.75-.69-2.73-.46-.98-1.09-1.94-1.89-2.88-.8-.94-1.71-1.78-2.73-2.52-1.02-.74-2.08-1.28-3.18-1.62-1.1-.34-2.2-.42-3.3-.24-1.1.18-2.09.73-2.97,1.65-.84.84-1.24,1.83-1.2,2.97.04,1.14.52,2.17,1.44,3.09.68.68,1.69,1.36,3.03,2.04,1.34.68,3.11,1.3,5.31,1.86,1.64.44,3.02.96,4.14,1.56,1.12.6,2.04,1.24,2.76,1.92,1.16,1.16,1.84,2.46,2.04,3.9.2,1.44-.1,2.88-.9,4.32-.4.68-.87,1.31-1.41,1.89-.54.58-1.13,1.05-1.77,1.41-.64.44-1.35.81-2.13,1.11-.78.3-1.59.54-2.43.72-.84.18-1.68.3-2.52.36s-1.64.07-2.4.03c-1.44-.12-2.95-.43-4.53-.93-1.58-.5-3.23-1.27-4.95-2.31l-.48-.3,1.44-6.66.48.12c-.08.36,0,.82.24,1.38.24.56.54,1.14.9,1.74.36.6.74,1.15,1.14,1.65.4.5.74.87,1.02,1.11.8.8,1.68,1.43,2.64,1.89.96.46,1.96.79,3,.99,1,.2,1.99.28,2.97.24.98-.04,1.91-.18,2.79-.42.48-.12.92-.27,1.32-.45s.82-.39,1.26-.63c.4-.28.76-.58,1.08-.9.28-.32.53-.66.75-1.02.22-.36.37-.74.45-1.14.08-.64.04-1.22-.12-1.74-.28-.76-.75-1.41-1.41-1.95s-1.43-1-2.31-1.38c-.88-.38-1.83-.71-2.85-.99-1.02-.28-2.03-.58-3.03-.9-1.92-.56-3.61-1.36-5.07-2.4-1.46-1.04-2.52-2.23-3.18-3.57-.66-1.34-.86-2.77-.6-4.29.26-1.52,1.17-3.06,2.73-4.62,1.04-1.08,2.41-1.75,4.11-2.01,1.7-.26,3.42-.26,5.16,0,1.74.26,3.32.74,4.74,1.44,1.42.7,2.39,1.49,2.91,2.37l-1.5,6.84h-.3Z"/>
  <path class="cls-1" d="M319.52,43.32h-5.58v-15.48c-.28,1.8-.62,3.44-1.02,4.92-.4,1.48-.86,2.8-1.38,3.96-.4.84-.86,1.66-1.38,2.46-.52.8-1.13,1.53-1.83,2.19-.7.66-1.46,1.19-2.28,1.59-.82.4-1.73.6-2.73.6-1.64,0-2.97-.34-3.99-1.02-1.02-.68-1.82-1.56-2.4-2.64-.58-1.08-.98-2.3-1.2-3.66-.22-1.36-.33-2.72-.33-4.08v-12.6c0-1-.06-1.8-.18-2.4-.12-.6-.25-1.06-.39-1.38-.14-.32-.29-.54-.45-.66-.16-.12-.28-.18-.36-.18v-.54h5.58v17.76c0,.72.04,1.59.12,2.61.08,1.02.25,2.02.51,3,.26.98.64,1.87,1.14,2.67.5.8,1.17,1.34,2.01,1.62.84.28,1.66.28,2.46,0,.8-.28,1.53-.72,2.19-1.32s1.25-1.28,1.77-2.04c.52-.76.94-1.48,1.26-2.16.88-1.92,1.58-4.27,2.1-7.05.52-2.78.78-6.09.78-9.93,0-1-.06-1.8-.18-2.4-.12-.6-.25-1.06-.39-1.38-.14-.32-.29-.54-.45-.66-.16-.12-.28-.18-.36-.18v-.54h5.58v23.76c0,1,.05,1.8.15,2.4.1.6.23,1.07.39,1.41.16.34.32.56.48.66.16.1.28.15.36.15v.54Z"/>
  <path class="cls-1" d="M329.48,43.32h-6.96v-.54c.08,0,.2-.05.36-.15.16-.1.31-.32.45-.66.14-.34.27-.81.39-1.41.12-.6.18-1.4.18-2.4V5.16c-.16-1.04-.37-1.72-.63-2.04-.26-.32-.47-.48-.63-.48l-.18-.54,5.64-2.1v38.16c0,1,.05,1.8.15,2.4.1.6.23,1.07.39,1.41.16.34.32.56.48.66.16.1.28.15.36.15v.54Z"/>
  <path class="cls-1" d="M331.58,14.4c.24,0,.68-.06,1.32-.18.64-.12,1.29-.45,1.95-.99.66-.54,1.24-1.36,1.74-2.46.5-1.1.75-2.63.75-4.59h4.2c0,2.4-.48,4.25-1.44,5.55-.96,1.3-2.4,2.19-4.32,2.67h9v.42h-5.22v17.34c0,.72.04,1.59.12,2.61s.25,2.02.51,3c.26.98.64,1.87,1.14,2.67.5.8,1.17,1.34,2.01,1.62.84.28,1.66.28,2.46,0,.8-.28,1.53-.72,2.19-1.32s1.25-1.28,1.77-2.04c.52-.76.94-1.48,1.26-2.16.24-.56.47-1.15.69-1.77.22-.62.43-1.27.63-1.95h.54c-.2.72-.41,1.41-.63,2.07-.22.66-.47,1.27-.75,1.83-.36.84-.81,1.66-1.35,2.46-.54.8-1.15,1.53-1.83,2.19-.68.66-1.44,1.19-2.28,1.59s-1.76.6-2.76.6c-1.64,0-2.97-.34-3.99-1.02-1.02-.68-1.82-1.56-2.4-2.64s-.98-2.3-1.2-3.66c-.22-1.36-.33-2.72-.33-4.08v-13.68c0-1-.34-1.86-1.02-2.58-.68-.72-1.6-1.08-2.76-1.08v-.42Z"/>
  <path class="cls-1" d="M354.38,16.56l5.7-2.16v23.76c0,1,.05,1.8.15,2.4.1.6.23,1.07.39,1.41.16.34.32.56.48.66.16.1.28.15.36.15v.54h-7.02v-.54c.12,0,.26-.05.42-.15.16-.1.31-.32.45-.66.14-.34.27-.81.39-1.41.12-.6.18-1.4.18-2.4v-18.54c-.16-1.08-.38-1.78-.66-2.1-.28-.32-.5-.48-.66-.48l-.18-.48ZM357.53,9.54c-.81,0-1.49-.27-2.03-.81-.54-.54-.82-1.21-.82-2.01s.27-1.47.82-2.01c.55-.54,1.22-.81,2.03-.81s1.49.27,2.03.81.82,1.21.82,2.01-.27,1.47-.82,2.01-1.22.81-2.03.81Z"/>
  <path class="cls-1" d="M364.4,14.4h5.58l-.06,15.54c.24-1.84.57-3.5.99-4.98.42-1.48.89-2.8,1.41-3.96.4-.84.86-1.66,1.38-2.46.52-.8,1.13-1.53,1.83-2.19.7-.66,1.46-1.19,2.28-1.59.82-.4,1.73-.6,2.73-.6,1.64,0,2.97.34,3.99,1.02,1.02.68,1.82,1.56,2.4,2.64.58,1.08.98,2.3,1.2,3.66.22,1.36.33,2.72.33,4.08v12.6c0,1,.05,1.8.15,2.4.1.6.23,1.07.39,1.41.16.34.32.56.48.66.16.1.28.15.36.15v.54h-6.96v-.54c.08,0,.2-.05.36-.15.16-.1.31-.32.45-.66.14-.34.27-.81.39-1.41.12-.6.18-1.4.18-2.4v-12.6c0-.72-.04-1.59-.12-2.61-.08-1.02-.25-2.02-.51-3-.26-.98-.64-1.87-1.13-2.67-.5-.8-1.17-1.34-2-1.62-.84-.28-1.65-.27-2.45.03-.8.3-1.52.75-2.18,1.35-.66.6-1.25,1.28-1.76,2.04-.52.76-.94,1.48-1.25,2.16-.88,1.92-1.57,4.27-2.09,7.05-.52,2.78-.78,6.07-.78,9.87,0,1,.05,1.8.15,2.4.1.6.23,1.07.39,1.41.16.34.32.56.48.66.16.1.28.15.36.15v.54h-6.96v-.54c.08,0,.2-.05.36-.15.16-.1.31-.32.45-.66.14-.34.27-.81.39-1.41.12-.6.18-1.4.18-2.4v-18.6c0-.96-.06-1.75-.18-2.37-.12-.62-.25-1.09-.39-1.41-.14-.32-.29-.54-.45-.66-.16-.12-.28-.18-.36-.18v-.54Z"/>
  <path class="cls-1" d="M393.38,32.34c-.52-1.96-.64-3.9-.36-5.82.28-1.92.89-3.7,1.83-5.34.94-1.64,2.17-3.06,3.69-4.26,1.52-1.2,3.26-2.06,5.22-2.58,2-.56,3.95-.69,5.85-.39,1.9.3,3.67.91,5.31,1.83l1.98-.54c1.8-.48,3.18-.95,4.14-1.41.96-.46,1.65-.88,2.07-1.26.42-.38.65-.69.69-.93.04-.24.06-.38.06-.42v-.06l.54-.12.54,2.22.12.54.54,2.22-.54.12c-.28-.36-.72-.62-1.32-.78-.52-.16-1.23-.25-2.13-.27-.9-.02-2.07.13-3.51.45l-2.52.6c1.48.96,2.76,2.17,3.84,3.63,1.08,1.46,1.88,3.11,2.4,4.95.52,1.88.65,3.75.39,5.61-.26,1.86-.82,3.59-1.68,5.19-.86,1.6-2,3.01-3.42,4.23-1.42,1.22-3.05,2.13-4.89,2.73-.8.32-1.73.56-2.79.72-1.06.16-2.15.32-3.27.48-1.12.16-2.23.33-3.33.51-1.1.18-2.06.45-2.88.81-.82.36-1.45.85-1.89,1.47-.44.62-.6,1.41-.48,2.37.16,1.12.62,1.85,1.38,2.19.76.34,1.67.44,2.73.3,1.06-.14,2.21-.45,3.45-.93,1.24-.48,2.43-1.01,3.57-1.59,1.14-.58,2.17-1.14,3.09-1.68.92-.54,1.56-.93,1.92-1.17,1.28-.8,2.57-1.53,3.87-2.19,1.3-.66,2.47-1.05,3.51-1.17,1.36-.16,2.38.17,3.06.99.68.82,1.03,1.83,1.05,3.03.02,1.2-.3,2.4-.96,3.6-.66,1.2-1.61,2.1-2.85,2.7-.96.44-1.98.66-3.06.66s-2.16-.16-3.24-.48c-1.08-.32-2.12-.77-3.12-1.35-1-.58-1.86-1.23-2.58-1.95l.3-.3c1.88,1.48,3.64,2.5,5.28,3.06,1.64.56,3.04.5,4.2-.18.6-.36,1.13-.9,1.59-1.62.46-.72.8-1.49,1.02-2.31.22-.82.27-1.59.15-2.31-.12-.72-.47-1.24-1.05-1.56-.58-.32-1.43-.38-2.55-.18-1.12.2-2.58.84-4.38,1.92-.64.4-1.52.95-2.64,1.65-1.12.7-2.36,1.41-3.72,2.13-1.36.72-2.75,1.36-4.17,1.92-1.42.56-2.74.88-3.96.96-1.22.08-2.28-.14-3.18-.66-.9-.52-1.49-1.5-1.77-2.94-.24-1.36.07-2.42.93-3.18.86-.76,1.94-1.35,3.24-1.77s2.66-.7,4.08-.84c1.42-.14,2.61-.27,3.57-.39-1.52-.12-2.97-.47-4.35-1.05-1.38-.58-2.64-1.34-3.78-2.28-1.14-.94-2.13-2.05-2.97-3.33-.84-1.28-1.46-2.68-1.86-4.2ZM417.74,25.8c-.4-1.44-1.03-2.92-1.89-4.44-.86-1.52-1.89-2.84-3.09-3.96-1.2-1.12-2.56-1.96-4.08-2.52-1.52-.56-3.12-.6-4.8-.12-1.68.44-3.04,1.28-4.08,2.52-1.04,1.24-1.8,2.65-2.28,4.23-.48,1.58-.71,3.24-.69,4.98.02,1.74.23,3.33.63,4.77.4,1.44,1.02,2.92,1.86,4.44.84,1.52,1.86,2.84,3.06,3.96,1.2,1.12,2.56,1.96,4.08,2.52,1.52.56,3.12.6,4.8.12,1.68-.44,3.04-1.28,4.08-2.52,1.04-1.24,1.8-2.65,2.28-4.23.48-1.58.72-3.24.72-4.98s-.2-3.33-.6-4.77Z"/>
</svg>