<svg width="67" height="67" viewBox="0 0 67 67" fill="none" xmlns="http://www.w3.org/2000/svg">
<path d="M48.5895 18.0474H48.6173M19.4359 5.55298H47.2013C54.8685 5.55298 61.0839 11.7685 61.0839 19.4357V47.201C61.0839 54.8682 54.8685 61.0837 47.2013 61.0837H19.4359C11.7687 61.0837 5.55322 54.8682 5.55322 47.201V19.4357C5.55322 11.7685 11.7687 5.55298 19.4359 5.55298ZM44.4247 31.5691C44.7674 33.8799 44.3727 36.2399 43.2968 38.3134C42.2209 40.3869 40.5185 42.0684 38.4319 43.1186C36.3453 44.1689 33.9806 44.5344 31.6743 44.1633C29.3679 43.7922 27.2373 42.7033 25.5855 41.0514C23.9337 39.3996 22.8447 37.269 22.4736 34.9626C22.1025 32.6563 22.4681 30.2916 23.5183 28.205C24.5686 26.1184 26.25 24.416 28.3236 23.3401C30.3971 22.2642 32.757 21.8695 35.0678 22.2122C37.4249 22.5617 39.607 23.6601 41.2919 25.345C42.9769 27.0299 44.0752 29.2121 44.4247 31.5691Z" stroke="#2C2A27" stroke-width="4" stroke-linecap="round" stroke-linejoin="round"/>
</svg>
